<?xml version="1.0" encoding="UTF-8"?>
<svg id="Logo" xmlns="http://www.w3.org/2000/svg" viewBox="0 0 1445.62 400">
  <defs>
    <style>
      .cls-1 {
        fill: #fff;
      }
    </style>
  </defs>
  <g id="Page_1" data-name="Page 1">
    <g id="LOGO">
      <path class="cls-1" d="M303.73,55.95h19.04v-19.04h38.08v-19.04h57.12v38.08h-38.08v-18.58h-19.04v18.58h-37.63v19.04h-19.04v19.04h-19.04v19.04h-19.5v19.04h38.08v19.04h19.04v19.04h19.04v38.08h-19.04v57.12h57.12v-19.04h19.04v19.5h-19.04v18.58h-76.16v-19.04h-19.04v-76.16h19.04v-19.04h-19.04v-19.04h-57.12v19.04h-19.04v38.08h-19.04v38.08h-19.04v19.04h-38.08v19.04H36.72v-19.04h-18.58v-19.04H-.91v-95.2h19.04v-19.95h19.04V36.91h18.13v-19.04h19.04V-1.17h96.11v19.04h38.08v19.04h57.12v-19.04h37.63V-1.17h19.5v19.04h-19.04v19.04h-19.04v19.04h-19.04v38.08h19.04v-19.04h19.04v-19.04h0ZM18.13,170.19v57.12h19.04v-57.12h-19.04ZM75.25,132.11h-38.08v38.08h19.04v57.12h56.66v-19.04h19.04v-19.04h19.5v-57.12h-18.58v19.04h-57.58v-19.04h0ZM56.21,227.77h-19.04v37.63h75.71v-19.04h-56.66v-18.58h0ZM151.42,17.87h-76.16v19.04h-19.04v76.16h19.04v-19.04h57.12v-19.04h-38.08v-19.04h38.54v19.04h18.58v38.08h19.04v57.12h19.04v-57.12h19.04v-38.08h19.04v-19.04h-19.5v-19.04h-56.66v-19.04h.02ZM75.71,132.11h56.66v-19.04h-56.66v19.04ZM131.92,227.32h-18.58v19.04h18.58v-19.04ZM150.95,208.27h-18.58v19.04h18.58v-19.04ZM170.45,189.24h-18.58v19.04h18.58v-19.04h0ZM246.61,113.07h18.58v-19.04h-18.58v19.04Z"/>
      <g>
        <path class="cls-1" d="M354.35,208.08c-1.69,0-2.54-.61-2.54-1.81,0-1.33,1.21-2.17,3.63-2.54l3.63-.54c2.66-.36,4.5-1,5.53-1.91,1.03-.91,1.78-2.63,2.27-5.17l24.66-106.62c.61-2.54.61-4.23,0-5.08s-2.12-1.51-4.54-1.99l-3.63-.72c-1.57-.36-2.35-1.03-2.35-1.99,0-1.45,1.09-2.17,3.26-2.17h60.56c3.14,0,4.41,1.39,3.81,4.17l-5.62,30.1c-.36,2.06-1.33,3.08-2.9,3.08-1.7,0-2.42-.79-2.17-2.35l.54-6.35c.61-6.17.09-11-1.54-14.51-1.63-3.5-4.05-5.99-7.25-7.44-3.21-1.45-6.93-2.17-11.15-2.17-4.84,0-8.34.7-10.51,2.09-2.17,1.39-3.69,3.84-4.54,7.34l-9.97,43.7c-.36,1.7.3,2.53,1.99,2.53h9.25c5.32,0,9.19-2.84,11.61-8.52l3.99-9.06c.61-1.57,1.57-2.35,2.9-2.35.72,0,1.3.27,1.73.82.43.54.51,1.3.27,2.27l-9.43,40.8c-.61,2.06-1.63,3.08-3.08,3.08s-2.17-.79-2.17-2.35l.18-8.88c.12-4.23-.39-7.01-1.54-8.34-1.15-1.33-3.11-1.99-5.89-1.99h-9.06c-1.81,0-2.9.84-3.26,2.53l-10.51,45.51c-.97,4.35-.54,7.5,1.27,9.43,1.81,1.94,5.68,2.9,11.61,2.9,3.63,0,7.22-.57,10.79-1.73,3.57-1.15,6.95-3.36,10.15-6.62,3.2-3.26,6.13-7.98,8.8-14.15l4.35-10.15c.61-1.57,1.57-2.35,2.9-2.35,1.81,0,2.42,1.03,1.81,3.08l-9.24,32.27c-.73,2.78-2.54,4.17-5.44,4.17h-63.13Z"/>
        <path class="cls-1" d="M468.95,209.89c-.48,0-.97-.18-1.45-.54s-.72-1.15-.72-2.35l-1.99-114.96c-.12-3.38-.98-7.26-4.12-8.06-2.89-.74-12.29-1.61-13.23,3.32h-8.02c-2.67,1.26-2.75-6.69-2.75-7.77,0-1.33,1.03-1.99,3.08-1.99h47.71c1.57,0,2.35.61,2.35,1.81,0,1.33-1.21,2.12-3.63,2.35l-3.63.36c-2.06.12-3.47.76-4.26,1.91-.79,1.15-1.18,3.05-1.18,5.71l.91,85.77c0,1.21.36,1.88,1.09,1.99.73.12,1.33-.3,1.81-1.27l39.71-82.69c3.38-6.89,2.3-10.7-3.26-11.42l-2.53-.36c-1.81-.36-2.72-1.09-2.72-2.17,0-1.33,1.03-1.99,3.08-1.99h31.67c1.45,0,8.37.61,8.37,1.81,0,1.09-3.68,2.29-7.28,2.46l-7.81.3c-5.06-.03-6.77,1.8-8.46,3.67-1.7,1.88-3.39,4.51-5.08,7.89l-54.22,113.33c-.48,1.21-1.06,1.99-1.73,2.35-.66.36-1.24.54-1.73.54h-.01Z"/>
        <path class="cls-1" d="M515.37,208.08c-1.69,0-2.54-.61-2.54-1.81,0-1.33,1.21-2.17,3.63-2.54l3.63-.54c2.66-.36,4.5-1,5.53-1.91,1.03-.91,1.78-2.63,2.27-5.17l24.66-106.62c.61-2.54.61-4.23,0-5.08-.61-.84-1.65-1.84-4.54-1.99l-22.7-.72c-1.57-.36-2.35-1.03-2.35-1.99,0-1.45,1.09-2.17,3.26-2.17h51.35c1.69,0,2.53.61,2.53,1.81,0,1.33-1.21,2.17-3.63,2.54l-3.63.54c-2.66.36-4.48,1-5.44,1.91-.97.91-1.75,2.63-2.35,5.17l-24.66,106.62c-.48,2.54-.45,4.23.09,5.08s5.76,1.99,13.09,2.39l9.24.33c3.46.17,6.01,1.03,6.01,1.99,0,1.45-1.09,2.17-3.26,2.17h-50.18,0Z"/>
        <path class="cls-1" d="M632.51,209.71c-1.57,0-2.6-.97-3.08-2.9l-26.48-108.07c-.12-.61-.43-.91-.91-.91s-.84.3-1.09.91l-21.58,93.75c-.84,3.39-.88,5.96-.09,7.71.79,1.75,2.63,2.87,5.53,3.36l2.17.36c1.57.12,2.23.84,1.99,2.17-.36,1.33-1.45,1.99-3.26,1.99h-33.5c-1.81,0-6.64-.58-6.28-1.92.25-1.33,4.3-2.26,5.88-2.38l10.98-.67c3.26-.48,5.76-1.16,7.33-2.92,1.57-1.75,2.78-4.32,3.63-7.71l23.75-103c.61-2.54.61-4.23,0-5.08-.61-.84-2.24-1.51-4.9-1.99l-3.99-.72c-1.57-.36-2.17-1.09-1.81-2.17.24-1.33,1.27-1.99,3.08-1.99h17.59c3.02,0,4.83,1.33,5.44,3.99l22.85,93.93c.24.84.64,1.27,1.18,1.27s.87-.43,1-1.27l19.04-82.33c.97-3.87.97-6.56,0-8.07-.97-1.51-2.48-2.45-4.54-2.81l-3.08-.54c-1.57-.36-2.17-1.09-1.81-2.17.24-1.33,1.27-1.99,3.08-1.99h25.93c1.81,0,2.6.66,2.35,1.99-.48,1.33-1.45,2.06-2.9,2.17l-2.53.36c-3.26.48-5.65,1.48-7.16,2.99-1.52,1.51-2.75,4.2-3.72,8.07l-25.93,112.61c-.61,2.66-1.99,3.99-4.17,3.99h.03Z"/>
      </g>
      <g>
        <path class="cls-1" d="M711.02,222.72h48.35l-.12,10.25h-37.14l.12,13.93h23.54v10.48h-23.54v27.12h-11.21v-61.78h0Z"/>
        <path class="cls-1" d="M759.15,222.72h38.77c4.33,0,7.94,1.42,10.85,4.24,2.91,2.74,4.41,6.17,4.41,10.23v5.12c0,3.53-1.68,7.06-3,8.47l-1.05,1.15c.35.27.79.61,1.23,1.15.53.44,1.23,1.59,2.03,3.44.88,1.86,1.32,3.79,1.32,5.91v6.62c0,4.5-1.59,8.2-4.77,11.12-3.18,2.91-6.97,4.33-11.29,4.33h-38.51v-61.78h0ZM769.83,233.04v13.95h28.18c2.56,0,4.68-1.94,4.68-4.33v-5.29c0-2.38-2.12-4.33-4.68-4.33h-28.18ZM769.83,257.31v16.86h27.83c2.91,0,5.29-2.3,5.29-5.12v-6.53c0-2.21-2.03-5.21-5.29-5.21h-27.83Z"/>
        <path class="cls-1" d="M821.23,222.72l21,18.18,21.19-18.18h20.72l-33.12,29.56,34.98,32.21h-20.86l-22.92-20.39-22.86,20.39h-23.43l37.37-32.21-35.38-29.56h23.31Z"/>
        <rect class="cls-1" x="658.59" y="222.72" width="28.48" height="28.48"/>
      </g>
    </g>
  </g>
</svg>